# xmcd
#
# Track frame offsets:
#	150
#	13169
#	27570
#	43139
#	59986
#	74169
#	91486
#	106518
#	120740
#	132912
#	154797
#	172307
#	186705
#	201519
#	216057
#	232563
#	244424
#	257477
#	274093
#
# Disc length: 3885 seconds
#
# Revision: 0
# Processed by: cddbd v1.5.2PL0 Copyright (c) Steve Scherf et al.
# Submitted via: dBpowerAMP V4.0
#
DISCID=2b0f2b13
DTITLE=Various Artist - ERG Nu Country Traxx Vol. 235 CAN
DYEAR=2014
DGENRE=Country
TTITLE0=Jason Aldean - When She Says Baby
TTITLE1=Jake Owen - Beachin'
TTITLE2=Brad Paisley - The Mona Lisa
TTITLE3=Cadillac Three ft. Florida Georgia Line, Dierks Bentley And Mike Eli (Big Machine), The - The South
TTITLE4=Tyler Farr - Whiskey In My Water
TTITLE5=Kip Moore - Young Love
TTITLE6=Wyatt - Always Tonight
TTITLE7=Thomas Rhett - Get Me Some Of That
TTITLE8=Craig Campbell - Keep Them Kisses Comin'
TTITLE9=George Canyon  - Slow Dance
TTITLE10=Billy Currington - We Are Tonight
TTITLE11=Michelle Cupit - She's A Trainwreck
TTITLE12=Wes Mack - Our Soundtrack
TTITLE13=Kylee Epp - You Will
TTITLE14=Charlie Worsham - Want Me Too
TTITLE15=High Valley - Rescue You
TTITLE16=Blackjack Billy - The Booze Cruise
TTITLE17=Court Yard Hounds - Sunshine
TTITLE18=Taylor Swift ft. Alison Krauss, Edgar Meyer, Eric Darken, Sam Bush And Vince Gill  - Red [2013 Cma Awards Show Performance]
EXTD=
EXTT0=
EXTT1=
EXTT2=
EXTT3=
EXTT4=
EXTT5=
EXTT6=
EXTT7=
EXTT8=
EXTT9=
EXTT10=
EXTT11=
EXTT12=
EXTT13=
EXTT14=
EXTT15=
EXTT16=
EXTT17=
EXTT18=
PLAYORDER=
